<svg width="12" height="6" viewBox="0 0 12 6" fill="none" xmlns="http://www.w3.org/2000/svg">
<path d="M5.39293 4.08129C5.55396 4.23841 5.77232 4.32668 6 4.32668C6.22768 4.32668 6.44605 4.23841 6.60707 4.08129L10.5448 0.238616C10.7068 0.0859492 10.9237 0.00147419 11.1488 0.00338344C11.3739 0.00529316 11.5893 0.0934356 11.7485 0.248825C11.9077 0.404216 11.998 0.61442 12 0.834167C12.0019 1.05391 11.9154 1.26562 11.759 1.42369L7.8212 5.26385C7.33814 5.73521 6.68305 6 6 6C5.31695 6 4.66187 5.73521 4.1788 5.26385L0.241033 1.42033C0.0846227 1.26227 -0.00192425 1.05056 3.26755e-05 0.830815C0.00198865 0.611069 0.0922921 0.400863 0.251493 0.245473C0.410694 0.0900829 0.626054 0.00194146 0.85119 3.17194e-05C1.07632 -0.00187755 1.29322 0.0825975 1.45517 0.235264L5.39293 4.08129Z" fill="#272727"/>
</svg>
