<svg width="9" height="5" viewBox="0 0 9 5" fill="none" xmlns="http://www.w3.org/2000/svg">
<path d="M3.68963 2.79227C3.79979 2.89976 3.94919 2.96015 4.10496 2.96015C4.26073 2.96015 4.41013 2.89976 4.52029 2.79227L7.21439 0.163234C7.32518 0.0587845 7.47358 0.000989457 7.62761 0.00229551C7.78164 0.00360203 7.92898 0.0639062 8.0379 0.170219C8.14682 0.276532 8.2086 0.420347 8.20994 0.57069C8.21128 0.721033 8.15206 0.865875 8.04505 0.974019L5.35096 3.60133C5.02047 3.92382 4.57228 4.10498 4.10496 4.10498C3.63764 4.10498 3.18945 3.92382 2.85896 3.60133L0.164867 0.971726C0.0578574 0.863582 -0.00135534 0.71874 -1.7346e-05 0.568397C0.00132161 0.418054 0.0631044 0.274238 0.172024 0.167925C0.280944 0.0616125 0.428286 0.00130925 0.582316 2.70455e-06C0.736347 -0.00130384 0.88474 0.0564912 0.995536 0.16094L3.68963 2.79227Z" fill="#272727"/>
</svg>
