<svg width="13" height="7" viewBox="0 0 13 7" fill="none" xmlns="http://www.w3.org/2000/svg">
<path d="M5.48727 4.1527C5.65111 4.31257 5.87329 4.40237 6.10496 4.40237C6.33663 4.40237 6.55881 4.31257 6.72265 4.1527L10.7293 0.242772C10.8941 0.0874346 11.1148 0.00148085 11.3439 0.00342395C11.573 0.00536658 11.7921 0.0950515 11.9541 0.253161C12.1161 0.41127 12.2079 0.625154 12.2099 0.848746C12.2119 1.07234 12.1239 1.28775 11.9647 1.44858L7.95803 5.35595C7.46651 5.83555 6.79996 6.10498 6.10496 6.10498C5.40996 6.10498 4.74341 5.83555 4.25189 5.35595L0.245213 1.44517C0.0860655 1.28434 -0.00199581 1.06893 -5.50051e-06 0.845335C0.00198481 0.621744 0.0938694 0.407859 0.255856 0.24975C0.417842 0.0916407 0.636972 0.00195624 0.866047 1.35956e-05C1.09512 -0.00192953 1.31582 0.0840242 1.48059 0.239362L5.48727 4.1527Z" fill="white"/>
</svg>
