<svg width="9" height="5" viewBox="0 0 9 5" fill="none" xmlns="http://www.w3.org/2000/svg">
<path d="M3.68963 3.68728C3.79979 3.79478 3.94919 3.85517 4.10496 3.85517C4.26073 3.85517 4.41013 3.79478 4.52029 3.68728L7.21439 1.05825C7.32518 0.953804 7.47358 0.896009 7.62761 0.897315C7.78164 0.898622 7.92898 0.958926 8.0379 1.06524C8.14682 1.17155 8.2086 1.31537 8.20994 1.46571C8.21128 1.61605 8.15206 1.76089 8.04505 1.86904L5.35096 4.49635C5.02047 4.81884 4.57228 5 4.10496 5C3.63764 5 3.18945 4.81884 2.85896 4.49635L0.164867 1.86675C0.0578574 1.7586 -0.00135534 1.61376 -1.7346e-05 1.46342C0.00132161 1.31307 0.0631044 1.16926 0.172024 1.06294C0.280944 0.956632 0.428286 0.896329 0.582316 0.895022C0.736347 0.893716 0.88474 0.951511 0.995536 1.05596L3.68963 3.68728Z" fill="#898989"/>
</svg>
