<svg width="5" height="9" viewBox="0 0 5 9" fill="none" xmlns="http://www.w3.org/2000/svg">
<path d="M3.68729 4.75933C3.79479 4.64934 3.85517 4.50018 3.85517 4.34465C3.85517 4.18912 3.79479 4.03996 3.68729 3.92997L1.05827 1.24011C0.953824 1.12948 0.896029 0.981323 0.897335 0.827534C0.898642 0.673746 0.958946 0.526635 1.06526 0.417887C1.17157 0.309138 1.31538 0.247452 1.46573 0.246116C1.61607 0.244779 1.76091 0.303899 1.86905 0.410742L4.49635 3.1006C4.81884 3.43058 5 3.87806 5 4.34465C5 4.81124 4.81884 5.25872 4.49635 5.5887L1.86676 8.27856C1.75862 8.3854 1.61378 8.44452 1.46343 8.44318C1.31309 8.44185 1.16928 8.38016 1.06296 8.27141C0.956651 8.16266 0.896348 8.01555 0.895042 7.86176C0.893735 7.70798 0.95153 7.55982 1.05598 7.44919L3.68729 4.75933Z" fill="#272727"/>
</svg>
