<svg width="5" height="9" viewBox="0 0 5 9" fill="none" xmlns="http://www.w3.org/2000/svg">
<path d="M1.31272 3.72065C1.20522 3.83064 1.14484 3.9798 1.14484 4.13533C1.14484 4.29086 1.20522 4.44002 1.31272 4.55001L3.94176 7.23987C4.04621 7.3505 4.104 7.49866 4.1027 7.65245C4.10139 7.80623 4.04109 7.95334 3.93477 8.06209C3.82846 8.17084 3.68464 8.23253 3.5343 8.23386C3.38396 8.2352 3.23911 8.17608 3.13097 8.06924L0.503651 5.37938C0.181164 5.0494 0 4.60192 0 4.13533C0 3.66874 0.181164 3.22126 0.503651 2.89128L3.13326 0.201422C3.24141 0.0945797 3.38625 0.0354595 3.53659 0.0367956C3.68694 0.0381326 3.83075 0.0998182 3.93707 0.208568C4.04338 0.317316 4.10368 0.464427 4.10499 0.618216C4.1063 0.772004 4.0485 0.920165 3.94405 1.03079L1.31272 3.72065Z" fill="#272727"/>
</svg>
