<svg width="36" height="48" viewBox="0 0 36 48" fill="none" xmlns="http://www.w3.org/2000/svg">
<path d="M17.5484 0C7.87212 0 0 8.00102 0 17.8356C0 23.3367 2.78663 30.0137 8.28274 37.6811C12.3048 43.2925 16.2682 47.2944 16.435 47.4621C16.7416 47.7703 17.1449 47.9248 17.5486 47.9248C17.9407 47.9248 18.3331 47.779 18.6372 47.4865C18.8043 47.3257 22.7778 43.4859 26.8074 37.952C32.3079 30.3981 35.0969 23.6301 35.0969 17.8356C35.0967 8.00103 27.2244 0 17.5484 0ZM17.5484 25.5355C12.8177 25.5355 8.96918 21.6929 8.96918 16.9698C8.96918 12.2467 12.8178 8.40408 17.5484 8.40408C22.2789 8.40408 26.1275 12.2467 26.1275 16.9698C26.1275 21.6929 22.2788 25.5355 17.5484 25.5355Z" fill="#DF4F57"/>
</svg>
