<svg width="14" height="16" viewBox="0 0 14 16" fill="none" xmlns="http://www.w3.org/2000/svg">
<path d="M11.966 3.69068L9.64332 1.36668C9.21087 0.932106 8.69657 0.587569 8.13014 0.352988C7.56371 0.118407 6.95641 -0.00156258 6.34333 1.53658e-05H3.33333C2.4496 0.00107394 1.60237 0.352603 0.977479 0.977494C0.352588 1.60239 0.00105857 2.44962 0 3.33335V12.6667C0.00105857 13.5504 0.352588 14.3976 0.977479 15.0225C1.60237 15.6474 2.4496 15.9989 3.33333 16H9.99999C10.8837 15.9989 11.7309 15.6474 12.3558 15.0225C12.9807 14.3976 13.3323 13.5504 13.3333 12.6667V6.99001C13.335 6.37696 13.215 5.76967 12.9803 5.20333C12.7456 4.63698 12.4008 4.12284 11.966 3.69068ZM11.0233 4.63334C11.2269 4.84277 11.402 5.07814 11.544 5.33334H8.66666C8.48985 5.33334 8.32028 5.26311 8.19525 5.13808C8.07023 5.01306 7.99999 4.84349 7.99999 4.66668V1.78935C8.25528 1.9313 8.49084 2.10612 8.70066 2.30935L11.0233 4.63334ZM12 12.6667C12 13.1971 11.7893 13.7058 11.4142 14.0809C11.0391 14.456 10.5304 14.6667 9.99999 14.6667H3.33333C2.8029 14.6667 2.29419 14.456 1.91912 14.0809C1.54405 13.7058 1.33333 13.1971 1.33333 12.6667V3.33335C1.33333 2.80291 1.54405 2.29421 1.91912 1.91913C2.29419 1.54406 2.8029 1.33335 3.33333 1.33335H6.34333C6.45266 1.33335 6.55866 1.35468 6.66666 1.36468V4.66668C6.66666 5.19711 6.87737 5.70582 7.25245 6.08089C7.62752 6.45596 8.13622 6.66668 8.66666 6.66668H11.9687C11.9787 6.77468 12 6.88001 12 6.99001V12.6667Z" fill="white"/>
</svg>
