<svg width="33" height="33" viewBox="0 0 33 33" fill="none" xmlns="http://www.w3.org/2000/svg">
<path d="M31.6458 29.7608L23.6887 21.8037C25.8571 19.1517 26.9232 15.7677 26.6666 12.3517C26.4099 8.93563 24.8501 5.74892 22.3097 3.45069C19.7694 1.15247 16.4429 -0.0814496 13.0183 0.00417597C9.59371 0.0898016 6.33304 1.48842 3.91073 3.91073C1.48842 6.33304 0.0898016 9.59371 0.00417597 13.0183C-0.0814496 16.4429 1.15247 19.7694 3.45069 22.3097C5.74892 24.8501 8.93563 26.4099 12.3517 26.6666C15.7677 26.9232 19.1517 25.8571 21.8037 23.6887L29.7608 31.6458C30.0122 31.8886 30.349 32.023 30.6985 32.02C31.048 32.0169 31.3824 31.8767 31.6296 31.6296C31.8767 31.3824 32.0169 31.048 32.02 30.6985C32.023 30.349 31.8886 30.0122 31.6458 29.7608ZM13.3734 24.038C11.2641 24.038 9.20224 23.4125 7.44846 22.2407C5.69468 21.0688 4.32778 19.4032 3.5206 17.4545C2.71343 15.5058 2.50223 13.3616 2.91373 11.2928C3.32522 9.2241 4.34093 7.32386 5.83239 5.83239C7.32386 4.34093 9.2241 3.32522 11.2928 2.91373C13.3616 2.50223 15.5058 2.71343 17.4545 3.5206C19.4032 4.32778 21.0688 5.69468 22.2407 7.44846C23.4125 9.20224 24.038 11.2641 24.038 13.3734C24.0348 16.2008 22.9102 18.9116 20.9109 20.9109C18.9116 22.9102 16.2008 24.0348 13.3734 24.038Z" fill="white"/>
<path d="M17.3733 12.041H14.7072V9.37489C14.7072 9.02134 14.5667 8.68227 14.3167 8.43227C14.0667 8.18227 13.7277 8.04182 13.3741 8.04182C13.0205 8.04182 12.6815 8.18227 12.4315 8.43227C12.1815 8.68227 12.041 9.02134 12.041 9.37489V12.041H9.37489C9.02134 12.041 8.68227 12.1815 8.43227 12.4315C8.18227 12.6815 8.04182 13.0205 8.04182 13.3741C8.04182 13.7277 8.18227 14.0667 8.43227 14.3167C8.68227 14.5667 9.02134 14.7072 9.37489 14.7072H12.041V17.3733C12.041 17.7269 12.1815 18.0659 12.4315 18.3159C12.6815 18.5659 13.0205 18.7064 13.3741 18.7064C13.7277 18.7064 14.0667 18.5659 14.3167 18.3159C14.5667 18.0659 14.7072 17.7269 14.7072 17.3733V14.7072H17.3733C17.7269 14.7072 18.0659 14.5667 18.3159 14.3167C18.5659 14.0667 18.7064 13.7277 18.7064 13.3741C18.7064 13.0205 18.5659 12.6815 18.3159 12.4315C18.0659 12.1815 17.7269 12.041 17.3733 12.041Z" fill="white"/>
</svg>
